<!DOCTYPE svg PUBLIC "-//W3C//DTD SVG 1.1//EN" "http://www.w3.org/Graphics/SVG/1.1/DTD/svg11.dtd">

<!-- Uploaded to: SVG Repo, www.svgrepo.com, Transformed by: SVG Repo Mixer Tools -->
<svg viewBox="0 0 2050.00 2050.00" data-name="Layer 3" id="Layer_3" xmlns="http://www.w3.org/2000/svg" fill="white" stroke="#000000" stroke-width="0.0205" transform="matrix(-1, 0, 0, 1, 0, 0)rotate(0)">

<g id="SVGRepo_bgCarrier" stroke-width="0"/>

<g id="SVGRepo_tracerCarrier" stroke-linecap="round" stroke-linejoin="round"/>

<g id="SVGRepo_iconCarrier">

<defs>

<style>.cls-1{fill:white;}</style>

</defs>

<title/>

<path class="cls-1" d="M503.6,1165.9a45,45,0,0,1-44.8-48.9l14.4-164.6a44.9,44.9,0,0,1,13-27.9L947.8,462.9a45.1,45.1,0,0,1,63.6,0l150.2,150.3a44.9,44.9,0,0,1,0,63.6L700,1138.4a44.4,44.4,0,0,1-27.9,13l-164.5,14.3Zm164.6-59.4Z"/>

<path class="cls-1" d="M1560.8,1113.6H926.3a45,45,0,0,1,0-90h634.5a45,45,0,1,1,0,90Z"/>

<path class="cls-1" d="M1560.8,1338.4H503.6a45,45,0,1,1,0-90H1560.8a45,45,0,0,1,0,90Z"/>

<path class="cls-1" d="M1560.8,1563.2H503.6a45,45,0,0,1,0-90H1560.8a45,45,0,0,1,0,90Z"/>

</g>

</svg>